<svg id="visual" viewBox="0 0 1024 2048" width="1024" height="2048" xmlns="http://www.w3.org/2000/svg" xmlns:xlink="http://www.w3.org/1999/xlink" version="1.1"><g fill="#8eacc7"><circle r="26" cx="468" cy="327"></circle><circle r="2" cx="891" cy="1739"></circle><circle r="7" cx="788" cy="898"></circle><circle r="8" cx="156" cy="239"></circle><circle r="10" cx="872" cy="154"></circle><circle r="13" cx="141" cy="924"></circle><circle r="22" cx="133" cy="1344"></circle><circle r="2" cx="384" cy="413"></circle><circle r="2" cx="834" cy="1351"></circle><circle r="17" cx="556" cy="454"></circle><circle r="4" cx="314" cy="781"></circle><circle r="14" cx="403" cy="827"></circle><circle r="20" cx="388" cy="1964"></circle><circle r="7" cx="702" cy="1539"></circle><circle r="10" cx="782" cy="651"></circle><circle r="6" cx="724" cy="1098"></circle><circle r="1" cx="739" cy="1800"></circle><circle r="24" cx="936" cy="79"></circle><circle r="1" cx="858" cy="740"></circle><circle r="2" cx="839" cy="846"></circle><circle r="21" cx="389" cy="1380"></circle><circle r="24" cx="225" cy="1702"></circle><circle r="17" cx="102" cy="220"></circle><circle r="5" cx="696" cy="1875"></circle><circle r="2" cx="117" cy="640"></circle><circle r="10" cx="550" cy="784"></circle><circle r="24" cx="531" cy="1912"></circle><circle r="13" cx="483" cy="1177"></circle><circle r="19" cx="583" cy="321"></circle><circle r="8" cx="970" cy="491"></circle><circle r="13" cx="776" cy="347"></circle><circle r="13" cx="203" cy="1782"></circle><circle r="11" cx="858" cy="998"></circle><circle r="9" cx="224" cy="2010"></circle><circle r="24" cx="587" cy="1028"></circle><circle r="23" cx="272" cy="445"></circle><circle r="20" cx="982" cy="939"></circle><circle r="6" cx="944" cy="1897"></circle><circle r="10" cx="528" cy="123"></circle></g></svg>