<svg id="visual" viewBox="0 0 900 256" width="900" height="256" xmlns="http://www.w3.org/2000/svg" xmlns:xlink="http://www.w3.org/1999/xlink" version="1.1"><rect x="0" y="0" width="900" height="256" fill="#252831"></rect><path d="M0 102L15 102.8C30 103.7 60 105.3 90 111.7C120 118 150 129 180 137.7C210 146.3 240 152.7 270 149C300 145.3 330 131.7 360 130.8C390 130 420 142 450 146.5C480 151 510 148 540 148.3C570 148.7 600 152.3 630 146.7C660 141 690 126 720 125.5C750 125 780 139 810 142C840 145 870 137 885 133L900 129L900 257L885 257C870 257 840 257 810 257C780 257 750 257 720 257C690 257 660 257 630 257C600 257 570 257 540 257C510 257 480 257 450 257C420 257 390 257 360 257C330 257 300 257 270 257C240 257 210 257 180 257C150 257 120 257 90 257C60 257 30 257 15 257L0 257Z" fill="#252831"></path><path d="M0 176L15 174.3C30 172.7 60 169.3 90 168.5C120 167.7 150 169.3 180 169.7C210 170 240 169 270 164.8C300 160.7 330 153.3 360 150.5C390 147.7 420 149.3 450 151C480 152.7 510 154.3 540 153.5C570 152.7 600 149.3 630 147.3C660 145.3 690 144.7 720 142.7C750 140.7 780 137.3 810 142C840 146.7 870 159.3 885 165.7L900 172L900 257L885 257C870 257 840 257 810 257C780 257 750 257 720 257C690 257 660 257 630 257C600 257 570 257 540 257C510 257 480 257 450 257C420 257 390 257 360 257C330 257 300 257 270 257C240 257 210 257 180 257C150 257 120 257 90 257C60 257 30 257 15 257L0 257Z" fill="#2c3038"></path><path d="M0 189L15 185.2C30 181.3 60 173.7 90 168.2C120 162.7 150 159.3 180 160.7C210 162 240 168 270 168.2C300 168.3 330 162.7 360 166.3C390 170 420 183 450 183.5C480 184 510 172 540 169.5C570 167 600 174 630 180C660 186 690 191 720 192.5C750 194 780 192 810 185.3C840 178.7 870 167.3 885 161.7L900 156L900 257L885 257C870 257 840 257 810 257C780 257 750 257 720 257C690 257 660 257 630 257C600 257 570 257 540 257C510 257 480 257 450 257C420 257 390 257 360 257C330 257 300 257 270 257C240 257 210 257 180 257C150 257 120 257 90 257C60 257 30 257 15 257L0 257Z" fill="#333840"></path><path d="M0 189L15 192.3C30 195.7 60 202.3 90 206.8C120 211.3 150 213.7 180 213C210 212.3 240 208.7 270 207.7C300 206.7 330 208.3 360 209.7C390 211 420 212 450 208.5C480 205 510 197 540 195.7C570 194.3 600 199.7 630 202.2C660 204.7 690 204.3 720 202.8C750 201.3 780 198.7 810 195C840 191.3 870 186.7 885 184.3L900 182L900 257L885 257C870 257 840 257 810 257C780 257 750 257 720 257C690 257 660 257 630 257C600 257 570 257 540 257C510 257 480 257 450 257C420 257 390 257 360 257C330 257 300 257 270 257C240 257 210 257 180 257C150 257 120 257 90 257C60 257 30 257 15 257L0 257Z" fill="#3b4048"></path><path d="M0 218L15 216.8C30 215.7 60 213.3 90 214.3C120 215.3 150 219.7 180 222.2C210 224.7 240 225.3 270 226.3C300 227.3 330 228.7 360 230C390 231.3 420 232.7 450 233C480 233.3 510 232.7 540 229.8C570 227 600 222 630 222.2C660 222.3 690 227.7 720 227.7C750 227.7 780 222.3 810 222.3C840 222.3 870 227.7 885 230.3L900 233L900 257L885 257C870 257 840 257 810 257C780 257 750 257 720 257C690 257 660 257 630 257C600 257 570 257 540 257C510 257 480 257 450 257C420 257 390 257 360 257C330 257 300 257 270 257C240 257 210 257 180 257C150 257 120 257 90 257C60 257 30 257 15 257L0 257Z" fill="#434950"></path></svg>