<svg id="visual" viewBox="0 0 900 256" width="900" height="256" xmlns="http://www.w3.org/2000/svg" xmlns:xlink="http://www.w3.org/1999/xlink" version="1.1"><rect x="0" y="0" width="900" height="256" fill="#00000000"></rect><path d="M0 107L15 109.2C30 111.3 60 115.7 90 125.2C120 134.7 150 149.3 180 151.7C210 154 240 144 270 136.3C300 128.7 330 123.3 360 118.7C390 114 420 110 450 110.3C480 110.7 510 115.3 540 124.7C570 134 600 148 630 154C660 160 690 158 720 148.5C750 139 780 122 810 120.7C840 119.3 870 133.7 885 140.8L900 148L900 257L885 257C870 257 840 257 810 257C780 257 750 257 720 257C690 257 660 257 630 257C600 257 570 257 540 257C510 257 480 257 450 257C420 257 390 257 360 257C330 257 300 257 270 257C240 257 210 257 180 257C150 257 120 257 90 257C60 257 30 257 15 257L0 257Z" fill="#a9e5ff"></path><path d="M0 156L15 160.3C30 164.7 60 173.3 90 172.7C120 172 150 162 180 161.3C210 160.7 240 169.3 270 168.3C300 167.3 330 156.7 360 150C390 143.3 420 140.7 450 142.5C480 144.3 510 150.7 540 154.8C570 159 600 161 630 160.3C660 159.7 690 156.3 720 153C750 149.7 780 146.3 810 149.3C840 152.3 870 161.7 885 166.3L900 171L900 257L885 257C870 257 840 257 810 257C780 257 750 257 720 257C690 257 660 257 630 257C600 257 570 257 540 257C510 257 480 257 450 257C420 257 390 257 360 257C330 257 300 257 270 257C240 257 210 257 180 257C150 257 120 257 90 257C60 257 30 257 15 257L0 257Z" fill="#87b6d1"></path><path d="M0 183L15 178.8C30 174.7 60 166.3 90 161.8C120 157.3 150 156.7 180 160C210 163.3 240 170.7 270 173.3C300 176 330 174 360 174C390 174 420 176 450 178.2C480 180.3 510 182.7 540 179C570 175.3 600 165.7 630 162.5C660 159.3 690 162.7 720 165.3C750 168 780 170 810 171.3C840 172.7 870 173.3 885 173.7L900 174L900 257L885 257C870 257 840 257 810 257C780 257 750 257 720 257C690 257 660 257 630 257C600 257 570 257 540 257C510 257 480 257 450 257C420 257 390 257 360 257C330 257 300 257 270 257C240 257 210 257 180 257C150 257 120 257 90 257C60 257 30 257 15 257L0 257Z" fill="#678aa4"></path><path d="M0 184L15 183.8C30 183.7 60 183.3 90 183.8C120 184.3 150 185.7 180 186.7C210 187.7 240 188.3 270 193.3C300 198.3 330 207.7 360 211C390 214.3 420 211.7 450 208.8C480 206 510 203 540 200.8C570 198.7 600 197.3 630 197.7C660 198 690 200 720 198.8C750 197.7 780 193.3 810 195C840 196.7 870 204.3 885 208.2L900 212L900 257L885 257C870 257 840 257 810 257C780 257 750 257 720 257C690 257 660 257 630 257C600 257 570 257 540 257C510 257 480 257 450 257C420 257 390 257 360 257C330 257 300 257 270 257C240 257 210 257 180 257C150 257 120 257 90 257C60 257 30 257 15 257L0 257Z" fill="#486078"></path><path d="M0 222L15 223.5C30 225 60 228 90 228C120 228 150 225 180 222.2C210 219.3 240 216.7 270 215.5C300 214.3 330 214.7 360 216.2C390 217.7 420 220.3 450 219.3C480 218.3 510 213.7 540 211.8C570 210 600 211 630 213.3C660 215.7 690 219.3 720 222.5C750 225.7 780 228.3 810 225.8C840 223.3 870 215.7 885 211.8L900 208L900 257L885 257C870 257 840 257 810 257C780 257 750 257 720 257C690 257 660 257 630 257C600 257 570 257 540 257C510 257 480 257 450 257C420 257 390 257 360 257C330 257 300 257 270 257C240 257 210 257 180 257C150 257 120 257 90 257C60 257 30 257 15 257L0 257Z" fill="#2a394e"></path></svg>