<svg id="visual" viewBox="0 0 900 256" width="900" height="256" xmlns="http://www.w3.org/2000/svg" xmlns:xlink="http://www.w3.org/1999/xlink" version="1.1"><rect x="0" y="0" width="900" height="256" fill="#2a394e"></rect><path d="M0 99L15 100.5C30 102 60 105 90 110C120 115 150 122 180 128.7C210 135.3 240 141.7 270 137.7C300 133.7 330 119.3 360 111.7C390 104 420 103 450 112.3C480 121.7 510 141.3 540 145.8C570 150.3 600 139.7 630 132C660 124.3 690 119.7 720 120.8C750 122 780 129 810 127.5C840 126 870 116 885 111L900 106L900 257L885 257C870 257 840 257 810 257C780 257 750 257 720 257C690 257 660 257 630 257C600 257 570 257 540 257C510 257 480 257 450 257C420 257 390 257 360 257C330 257 300 257 270 257C240 257 210 257 180 257C150 257 120 257 90 257C60 257 30 257 15 257L0 257Z" fill="#ffd8a9"></path><path d="M0 162L15 158.3C30 154.7 60 147.3 90 141.5C120 135.7 150 131.3 180 136.7C210 142 240 157 270 162.8C300 168.7 330 165.3 360 160.5C390 155.7 420 149.3 450 143.7C480 138 510 133 540 136.7C570 140.3 600 152.7 630 160.5C660 168.3 690 171.7 720 169C750 166.3 780 157.7 810 152.3C840 147 870 145 885 144L900 143L900 257L885 257C870 257 840 257 810 257C780 257 750 257 720 257C690 257 660 257 630 257C600 257 570 257 540 257C510 257 480 257 450 257C420 257 390 257 360 257C330 257 300 257 270 257C240 257 210 257 180 257C150 257 120 257 90 257C60 257 30 257 15 257L0 257Z" fill="#d59d8f"></path><path d="M0 177L15 180C30 183 60 189 90 185.5C120 182 150 169 180 165.3C210 161.7 240 167.3 270 167.7C300 168 330 163 360 166.3C390 169.7 420 181.3 450 184.7C480 188 510 183 540 178.8C570 174.7 600 171.3 630 174C660 176.7 690 185.3 720 188.8C750 192.3 780 190.7 810 187.3C840 184 870 179 885 176.5L900 174L900 257L885 257C870 257 840 257 810 257C780 257 750 257 720 257C690 257 660 257 630 257C600 257 570 257 540 257C510 257 480 257 450 257C420 257 390 257 360 257C330 257 300 257 270 257C240 257 210 257 180 257C150 257 120 257 90 257C60 257 30 257 15 257L0 257Z" fill="#9a6d77"></path><path d="M0 214L15 213C30 212 60 210 90 209.2C120 208.3 150 208.7 180 207C210 205.3 240 201.7 270 199.2C300 196.7 330 195.3 360 198C390 200.7 420 207.3 450 205.3C480 203.3 510 192.7 540 187.5C570 182.3 600 182.7 630 186.8C660 191 690 199 720 203.3C750 207.7 780 208.3 810 204.8C840 201.3 870 193.7 885 189.8L900 186L900 257L885 257C870 257 840 257 810 257C780 257 750 257 720 257C690 257 660 257 630 257C600 257 570 257 540 257C510 257 480 257 450 257C420 257 390 257 360 257C330 257 300 257 270 257C240 257 210 257 180 257C150 257 120 257 90 257C60 257 30 257 15 257L0 257Z" fill="#5a4558"></path><path d="M0 232L15 231.2C30 230.3 60 228.7 90 225.8C120 223 150 219 180 216.3C210 213.7 240 212.3 270 215.3C300 218.3 330 225.7 360 227.7C390 229.7 420 226.3 450 223.5C480 220.7 510 218.3 540 218C570 217.7 600 219.3 630 221.3C660 223.3 690 225.7 720 227.7C750 229.7 780 231.3 810 228.7C840 226 870 219 885 215.5L900 212L900 257L885 257C870 257 840 257 810 257C780 257 750 257 720 257C690 257 660 257 630 257C600 257 570 257 540 257C510 257 480 257 450 257C420 257 390 257 360 257C330 257 300 257 270 257C240 257 210 257 180 257C150 257 120 257 90 257C60 257 30 257 15 257L0 257Z" fill="#21212f"></path></svg>