<svg id="visual" viewBox="0 0 900 256" width="900" height="256" xmlns="http://www.w3.org/2000/svg" xmlns:xlink="http://www.w3.org/1999/xlink" version="1.1"><rect x="0" y="0" width="900" height="256" fill="#21212f"></rect><path d="M0 107L15 107.3C30 107.7 60 108.3 90 116C120 123.7 150 138.3 180 143.7C210 149 240 145 270 145.7C300 146.3 330 151.7 360 146.8C390 142 420 127 450 118.8C480 110.7 510 109.3 540 112C570 114.7 600 121.3 630 127.3C660 133.3 690 138.7 720 141.3C750 144 780 144 810 147.5C840 151 870 158 885 161.5L900 165L900 257L885 257C870 257 840 257 810 257C780 257 750 257 720 257C690 257 660 257 630 257C600 257 570 257 540 257C510 257 480 257 450 257C420 257 390 257 360 257C330 257 300 257 270 257C240 257 210 257 180 257C150 257 120 257 90 257C60 257 30 257 15 257L0 257Z" fill="#d3a9ff"></path><path d="M0 128L15 133.7C30 139.3 60 150.7 90 152.8C120 155 150 148 180 142.8C210 137.7 240 134.3 270 132.5C300 130.7 330 130.3 360 130.7C390 131 420 132 450 138.3C480 144.7 510 156.3 540 159.5C570 162.7 600 157.3 630 152.8C660 148.3 690 144.7 720 144.3C750 144 780 147 810 150.5C840 154 870 158 885 160L900 162L900 257L885 257C870 257 840 257 810 257C780 257 750 257 720 257C690 257 660 257 630 257C600 257 570 257 540 257C510 257 480 257 450 257C420 257 390 257 360 257C330 257 300 257 270 257C240 257 210 257 180 257C150 257 120 257 90 257C60 257 30 257 15 257L0 257Z" fill="#9a89cb"></path><path d="M0 186L15 188C30 190 60 194 90 193C120 192 150 186 180 180.2C210 174.3 240 168.7 270 168.2C300 167.7 330 172.3 360 176.2C390 180 420 183 450 184.3C480 185.7 510 185.3 540 184.7C570 184 600 183 630 181C660 179 690 176 720 174.2C750 172.3 780 171.7 810 170C840 168.3 870 165.7 885 164.3L900 163L900 257L885 257C870 257 840 257 810 257C780 257 750 257 720 257C690 257 660 257 630 257C600 257 570 257 540 257C510 257 480 257 450 257C420 257 390 257 360 257C330 257 300 257 270 257C240 257 210 257 180 257C150 257 120 257 90 257C60 257 30 257 15 257L0 257Z" fill="#6a6896"></path><path d="M0 198L15 196.2C30 194.3 60 190.7 90 191.2C120 191.7 150 196.3 180 197C210 197.7 240 194.3 270 191.5C300 188.7 330 186.3 360 187.8C390 189.3 420 194.7 450 194.5C480 194.3 510 188.7 540 190.7C570 192.7 600 202.3 630 207C660 211.7 690 211.3 720 209.2C750 207 780 203 810 200.8C840 198.7 870 198.3 885 198.2L900 198L900 257L885 257C870 257 840 257 810 257C780 257 750 257 720 257C690 257 660 257 630 257C600 257 570 257 540 257C510 257 480 257 450 257C420 257 390 257 360 257C330 257 300 257 270 257C240 257 210 257 180 257C150 257 120 257 90 257C60 257 30 257 15 257L0 257Z" fill="#434862"></path><path d="M0 228L15 228C30 228 60 228 90 226.8C120 225.7 150 223.3 180 221.3C210 219.3 240 217.7 270 217.8C300 218 330 220 360 223C390 226 420 230 450 231.2C480 232.3 510 230.7 540 230.5C570 230.3 600 231.7 630 228.5C660 225.3 690 217.7 720 214.5C750 211.3 780 212.7 810 212.8C840 213 870 212 885 211.5L900 211L900 257L885 257C870 257 840 257 810 257C780 257 750 257 720 257C690 257 660 257 630 257C600 257 570 257 540 257C510 257 480 257 450 257C420 257 390 257 360 257C330 257 300 257 270 257C240 257 210 257 180 257C150 257 120 257 90 257C60 257 30 257 15 257L0 257Z" fill="#252831"></path></svg>