<svg id="visual" viewBox="0 0 900 256" width="900" height="256" xmlns="http://www.w3.org/2000/svg" xmlns:xlink="http://www.w3.org/1999/xlink" version="1.1"><rect x="0" y="0" width="900" height="256" fill="#252831"></rect><path d="M0 171L21.5 173.5C43 176 86 181 128.8 178.5C171.7 176 214.3 166 257.2 166.7C300 167.3 343 178.7 385.8 180.7C428.7 182.7 471.3 175.3 514.2 170.2C557 165 600 162 642.8 164C685.7 166 728.3 173 771.2 176.2C814 179.3 857 178.7 878.5 178.3L900 178L900 257L878.5 257C857 257 814 257 771.2 257C728.3 257 685.7 257 642.8 257C600 257 557 257 514.2 257C471.3 257 428.7 257 385.8 257C343 257 300 257 257.2 257C214.3 257 171.7 257 128.8 257C86 257 43 257 21.5 257L0 257Z" fill="#fa7268"></path><path d="M0 184L21.5 183C43 182 86 180 128.8 181.7C171.7 183.3 214.3 188.7 257.2 192.7C300 196.7 343 199.3 385.8 196.5C428.7 193.7 471.3 185.3 514.2 182.3C557 179.3 600 181.7 642.8 181.5C685.7 181.3 728.3 178.7 771.2 179.7C814 180.7 857 185.3 878.5 187.7L900 190L900 257L878.5 257C857 257 814 257 771.2 257C728.3 257 685.7 257 642.8 257C600 257 557 257 514.2 257C471.3 257 428.7 257 385.8 257C343 257 300 257 257.2 257C214.3 257 171.7 257 128.8 257C86 257 43 257 21.5 257L0 257Z" fill="#c55674"></path><path d="M0 210L21.5 208.8C43 207.7 86 205.3 128.8 205.8C171.7 206.3 214.3 209.7 257.2 211.2C300 212.7 343 212.3 385.8 209.5C428.7 206.7 471.3 201.3 514.2 198.8C557 196.3 600 196.7 642.8 195.2C685.7 193.7 728.3 190.3 771.2 189.2C814 188 857 189 878.5 189.5L900 190L900 257L878.5 257C857 257 814 257 771.2 257C728.3 257 685.7 257 642.8 257C600 257 557 257 514.2 257C471.3 257 428.7 257 385.8 257C343 257 300 257 257.2 257C214.3 257 171.7 257 128.8 257C86 257 43 257 21.5 257L0 257Z" fill="#87466e"></path><path d="M0 218L21.5 219.8C43 221.7 86 225.3 128.8 224.7C171.7 224 214.3 219 257.2 216.8C300 214.7 343 215.3 385.8 216C428.7 216.7 471.3 217.3 514.2 215.8C557 214.3 600 210.7 642.8 209.2C685.7 207.7 728.3 208.3 771.2 209.7C814 211 857 213 878.5 214L900 215L900 257L878.5 257C857 257 814 257 771.2 257C728.3 257 685.7 257 642.8 257C600 257 557 257 514.2 257C471.3 257 428.7 257 385.8 257C343 257 300 257 257.2 257C214.3 257 171.7 257 128.8 257C86 257 43 257 21.5 257L0 257Z" fill="#4c3655"></path><path d="M0 240L21.5 239.8C43 239.7 86 239.3 128.8 239C171.7 238.7 214.3 238.3 257.2 236.7C300 235 343 232 385.8 231C428.7 230 471.3 231 514.2 230.7C557 230.3 600 228.7 642.8 227.8C685.7 227 728.3 227 771.2 226.3C814 225.7 857 224.3 878.5 223.7L900 223L900 257L878.5 257C857 257 814 257 771.2 257C728.3 257 685.7 257 642.8 257C600 257 557 257 514.2 257C471.3 257 428.7 257 385.8 257C343 257 300 257 257.2 257C214.3 257 171.7 257 128.8 257C86 257 43 257 21.5 257L0 257Z" fill="#21212f"></path></svg>