<svg id="visual" viewBox="0 0 1024 2048" width="1024" height="2048" xmlns="http://www.w3.org/2000/svg" xmlns:xlink="http://www.w3.org/1999/xlink" version="1.1"><path d="M634 2048L683.5 1991.2C733 1934.3 832 1820.7 809.8 1706.8C787.7 1593 644.3 1479 632.3 1365.2C620.3 1251.3 739.7 1137.7 738 1024C736.3 910.3 613.7 796.7 589.8 682.8C566 569 641 455 652.8 341.2C664.7 227.3 613.3 113.7 587.7 56.8L562 0L1024 0L1024 56.8C1024 113.7 1024 227.3 1024 341.2C1024 455 1024 569 1024 682.8C1024 796.7 1024 910.3 1024 1024C1024 1137.7 1024 1251.3 1024 1365.2C1024 1479 1024 1593 1024 1706.8C1024 1820.7 1024 1934.3 1024 1991.2L1024 2048Z" fill="#00000000"></path><path d="M552 2048L574.2 1991.2C596.3 1934.3 640.7 1820.7 628.7 1706.8C616.7 1593 548.3 1479 577.3 1365.2C606.3 1251.3 732.7 1137.7 724.2 1024C715.7 910.3 572.3 796.7 526.3 682.8C480.3 569 531.7 455 536.8 341.2C542 227.3 501 113.7 480.5 56.8L460 0L563 0L588.7 56.8C614.3 113.7 665.7 227.3 653.8 341.2C642 455 567 569 590.8 682.8C614.7 796.7 737.3 910.3 739 1024C740.7 1137.7 621.3 1251.3 633.3 1365.2C645.3 1479 788.7 1593 810.8 1706.8C833 1820.7 734 1934.3 684.5 1991.2L635 2048Z" fill="#050f1e"></path><path d="M132 2048L179.8 1991.2C227.7 1934.3 323.3 1820.7 360.8 1706.8C398.3 1593 377.7 1479 427.2 1365.2C476.7 1251.3 596.3 1137.7 606.7 1024C617 910.3 518 796.7 439.5 682.8C361 569 303 455 297.8 341.2C292.7 227.3 340.3 113.7 364.2 56.8L388 0L461 0L481.5 56.8C502 113.7 543 227.3 537.8 341.2C532.7 455 481.3 569 527.3 682.8C573.3 796.7 716.7 910.3 725.2 1024C733.7 1137.7 607.3 1251.3 578.3 1365.2C549.3 1479 617.7 1593 629.7 1706.8C641.7 1820.7 597.3 1934.3 575.2 1991.2L553 2048Z" fill="#101927"></path><path d="M0 2048L28.8 1991.2C57.7 1934.3 115.3 1820.7 128.8 1706.8C142.3 1593 111.7 1479 92.8 1365.2C74 1251.3 67 1137.7 97.7 1024C128.3 910.3 196.7 796.7 217.2 682.8C237.7 569 210.3 455 205.3 341.2C200.3 227.3 217.7 113.7 226.3 56.8L235 0L389 0L365.2 56.8C341.3 113.7 293.7 227.3 298.8 341.2C304 455 362 569 440.5 682.8C519 796.7 618 910.3 607.7 1024C597.3 1137.7 477.7 1251.3 428.2 1365.2C378.7 1479 399.3 1593 361.8 1706.8C324.3 1820.7 228.7 1934.3 180.8 1991.2L133 2048Z" fill="#192230"></path><path d="M0 2048L0 1991.2C0 1934.3 0 1820.7 0 1706.8C0 1593 0 1479 0 1365.2C0 1251.3 0 1137.7 0 1024C0 910.3 0 796.7 0 682.8C0 569 0 455 0 341.2C0 227.3 0 113.7 0 56.8L0 0L236 0L227.3 56.8C218.7 113.7 201.3 227.3 206.3 341.2C211.3 455 238.7 569 218.2 682.8C197.7 796.7 129.3 910.3 98.7 1024C68 1137.7 75 1251.3 93.8 1365.2C112.7 1479 143.3 1593 129.7 1706.8C116 1820.7 58 1934.3 29 1991.2L0 2048Z" fill="#222b3a"></path></svg>