<svg id="visual" viewBox="0 0 1024 2048" width="1024" height="2048" xmlns="http://www.w3.org/2000/svg" xmlns:xlink="http://www.w3.org/1999/xlink" version="1.1"><path d="M347 2048L429 1991.2C511 1934.3 675 1820.7 738.2 1706.8C801.3 1593 763.7 1479 772.2 1365.2C780.7 1251.3 835.3 1137.7 884.8 1024C934.3 910.3 978.7 796.7 907 682.8C835.3 569 647.7 455 618.7 341.2C589.7 227.3 719.3 113.7 784.2 56.8L849 0L1024 0L1024 56.8C1024 113.7 1024 227.3 1024 341.2C1024 455 1024 569 1024 682.8C1024 796.7 1024 910.3 1024 1024C1024 1137.7 1024 1251.3 1024 1365.2C1024 1479 1024 1593 1024 1706.8C1024 1820.7 1024 1934.3 1024 1991.2L1024 2048Z" fill="#222b3a"></path><path d="M265 2048L343.5 1991.2C422 1934.3 579 1820.7 643.8 1706.8C708.7 1593 681.3 1479 652.3 1365.2C623.3 1251.3 592.7 1137.7 609.8 1024C627 910.3 692 796.7 652.8 682.8C613.7 569 470.3 455 426 341.2C381.7 227.3 436.3 113.7 463.7 56.8L491 0L850 0L785.2 56.8C720.3 113.7 590.7 227.3 619.7 341.2C648.7 455 836.3 569 908 682.8C979.7 796.7 935.3 910.3 885.8 1024C836.3 1137.7 781.7 1251.3 773.2 1365.2C764.7 1479 802.3 1593 739.2 1706.8C676 1820.7 512 1934.3 430 1991.2L348 2048Z" fill="#192230"></path><path d="M91 2048L179.8 1991.2C268.7 1934.3 446.3 1820.7 495.8 1706.8C545.3 1593 466.7 1479 430.8 1365.2C395 1251.3 402 1137.7 463.5 1024C525 910.3 641 796.7 606.8 682.8C572.7 569 388.3 455 333.7 341.2C279 227.3 354 113.7 391.5 56.8L429 0L492 0L464.7 56.8C437.3 113.7 382.7 227.3 427 341.2C471.3 455 614.7 569 653.8 682.8C693 796.7 628 910.3 610.8 1024C593.7 1137.7 624.3 1251.3 653.3 1365.2C682.3 1479 709.7 1593 644.8 1706.8C580 1820.7 423 1934.3 344.5 1991.2L266 2048Z" fill="#101927"></path><path d="M40 2048L137.3 1991.2C234.7 1934.3 429.3 1820.7 473.7 1706.8C518 1593 412 1479 362.5 1365.2C313 1251.3 320 1137.7 376.3 1024C432.7 910.3 538.3 796.7 495.7 682.8C453 569 262 455 200.5 341.2C139 227.3 207 113.7 241 56.8L275 0L430 0L392.5 56.8C355 113.7 280 227.3 334.7 341.2C389.3 455 573.7 569 607.8 682.8C642 796.7 526 910.3 464.5 1024C403 1137.7 396 1251.3 431.8 1365.2C467.7 1479 546.3 1593 496.8 1706.8C447.3 1820.7 269.7 1934.3 180.8 1991.2L92 2048Z" fill="#050f1e"></path><path d="M0 2048L0 1991.2C0 1934.3 0 1820.7 0 1706.8C0 1593 0 1479 0 1365.2C0 1251.3 0 1137.7 0 1024C0 910.3 0 796.7 0 682.8C0 569 0 455 0 341.2C0 227.3 0 113.7 0 56.8L0 0L276 0L242 56.8C208 113.7 140 227.3 201.5 341.2C263 455 454 569 496.7 682.8C539.3 796.7 433.7 910.3 377.3 1024C321 1137.7 314 1251.3 363.5 1365.2C413 1479 519 1593 474.7 1706.8C430.3 1820.7 235.7 1934.3 138.3 1991.2L41 2048Z" fill="#00000000"></path></svg>