<svg id="visual" viewBox="0 0 793 1122" width="793" height="1122" xmlns="http://www.w3.org/2000/svg" xmlns:xlink="http://www.w3.org/1999/xlink" version="1.1"><rect x="0" y="0" width="793" height="1122" fill="#363944"></rect><defs><linearGradient id="grad1_0" x1="0%" y1="0%" x2="100%" y2="100%"><stop offset="30%" stop-color="#434755" stop-opacity="1"></stop><stop offset="70%" stop-color="#434755" stop-opacity="1"></stop></linearGradient></defs><defs><linearGradient id="grad1_1" x1="0%" y1="0%" x2="100%" y2="100%"><stop offset="30%" stop-color="#434755" stop-opacity="1"></stop><stop offset="70%" stop-color="#3c404c" stop-opacity="1"></stop></linearGradient></defs><defs><linearGradient id="grad1_2" x1="0%" y1="0%" x2="100%" y2="100%"><stop offset="30%" stop-color="#363944" stop-opacity="1"></stop><stop offset="70%" stop-color="#3c404c" stop-opacity="1"></stop></linearGradient></defs><defs><linearGradient id="grad2_0" x1="0%" y1="0%" x2="100%" y2="100%"><stop offset="30%" stop-color="#434755" stop-opacity="1"></stop><stop offset="70%" stop-color="#434755" stop-opacity="1"></stop></linearGradient></defs><defs><linearGradient id="grad2_1" x1="0%" y1="0%" x2="100%" y2="100%"><stop offset="30%" stop-color="#3c404c" stop-opacity="1"></stop><stop offset="70%" stop-color="#434755" stop-opacity="1"></stop></linearGradient></defs><defs><linearGradient id="grad2_2" x1="0%" y1="0%" x2="100%" y2="100%"><stop offset="30%" stop-color="#3c404c" stop-opacity="1"></stop><stop offset="70%" stop-color="#363944" stop-opacity="1"></stop></linearGradient></defs><g transform="translate(793, 0)"><path d="M0 687C-67.7 579.3 -135.3 471.6 -247 427.8C-358.7 384 -514.3 404.1 -594.9 343.5C-675.6 282.8 -681.3 141.4 -687 0L0 0Z" fill="#393c48"></path><path d="M0 458C-45.1 386.2 -90.2 314.4 -164.7 285.2C-239.1 256 -342.9 269.4 -396.6 229C-450.4 188.6 -454.2 94.3 -458 0L0 0Z" fill="#404351"></path><path d="M0 229C-22.6 193.1 -45.1 157.2 -82.3 142.6C-119.6 128 -171.4 134.7 -198.3 114.5C-225.2 94.3 -227.1 47.1 -229 0L0 0Z" fill="#434755"></path></g><g transform="translate(0, 1122)"><path d="M0 -687C127.4 -673.2 254.9 -659.5 343.5 -594.9C432.1 -530.4 481.8 -415.1 532.6 -307.5C583.4 -199.9 635.2 -99.9 687 0L0 0Z" fill="#393c48"></path><path d="M0 -458C85 -448.8 169.9 -439.6 229 -396.6C288.1 -353.6 321.2 -276.7 355.1 -205C388.9 -133.3 423.5 -66.6 458 0L0 0Z" fill="#404351"></path><path d="M0 -229C42.5 -224.4 85 -219.8 114.5 -198.3C144 -176.8 160.6 -138.4 177.5 -102.5C194.5 -66.6 211.7 -33.3 229 0L0 0Z" fill="#434755"></path></g></svg>